<svg width="152" height="141" xmlns="http://www.w3.org/2000/svg"><g fill="none" fill-rule="evenodd"><path fill="#000" fill-rule="nonzero" d="M106.017 80.456L86.63 47.648l1.722-1.018 19.387 32.808 5.165-3.052L114 92l-13.149-8.492 5.166-3.052zm-61.404 0L64 47.648l-1.722-1.018-19.386 32.808-5.166-3.052L36.63 92l13.149-8.492-5.166-3.052z"/><g transform="translate(1 90)"><circle stroke="#000" stroke-width="2" fill="#C0DDFF" cx="25" cy="25" r="25"/><path d="M13 37.77l9.967-13.43L14.177 12h4.061l4.676 6.61c.973 1.37 1.664 2.425 2.074 3.163a33.649 33.649 0 0 1 2.04-2.935L32.212 12h3.709l-9.053 12.146 9.756 13.624h-4.219l-6.486-9.194a44.556 44.556 0 0 1-1.125-1.722c-.574.937-.984 1.582-1.23 1.933l-6.47 8.983H13z" fill="#000" fill-rule="nonzero"/></g><g transform="translate(101 90)"><circle stroke="#000" stroke-width="2" fill="#C0DDFF" cx="25" cy="25" r="25"/><path d="M22.932 37.77V26.854L13 12h4.148l5.08 7.77a78.036 78.036 0 0 1 2.62 4.359 94.563 94.563 0 0 1 2.812-4.553L32.652 12h3.973L26.342 26.854V37.77h-3.41z" fill="#000" fill-rule="nonzero"/></g><g transform="translate(51 1)"><circle stroke="#000" stroke-width="2" fill="#FFF" cx="25" cy="25" r="25"/><path d="M15 37.77v-3.165L28.201 18.1a42.244 42.244 0 0 1 2.672-3.059H16.494V12h18.457v3.041L20.484 32.918l-1.564 1.81h16.453v3.042H15z" fill="#000" fill-rule="nonzero"/></g></g></svg>